<svg version="1.2" xmlns="http://www.w3.org/2000/svg" viewBox="0 0 70 36" width="70" height="36">
	<defs>
		<linearGradient id="g1" x2="1" gradientUnits="userSpaceOnUse" gradientTransform="matrix(185.04,0,0,133.36,-116,66.7)">
			<stop offset="0" stop-color="#90cea1"/>
			<stop offset=".56" stop-color="#3cbec9"/>
			<stop offset="1" stop-color="#00b3e5"/>
		</linearGradient>
	</defs>
	<style>
		.s0 { fill: url(#g1) } 
	</style>
	<path class="s0" d="m-64.94 66.7c0-2.32 0.45-4.62 1.34-6.77 0.88-2.15 2.18-4.1 3.82-5.74 1.65-1.65 3.6-2.95 5.74-3.84 2.15-0.89 4.45-1.35 6.77-1.35h-0.1c2.32 0 4.62 0.46 6.77 1.35 2.14 0.89 4.09 2.19 5.74 3.84 1.64 1.64 2.94 3.59 3.82 5.74 0.89 2.15 1.34 4.45 1.34 6.77 0 2.32-0.46 4.62-1.35 6.76-0.88 2.15-2.18 4.09-3.83 5.73-1.64 1.65-3.58 2.95-5.73 3.83-2.14 0.89-4.44 1.35-6.76 1.35h0.1c-2.32 0-4.62-0.46-6.76-1.35-2.15-0.88-4.09-2.18-5.73-3.83-1.65-1.64-2.95-3.58-3.83-5.73-0.89-2.14-1.35-4.44-1.35-6.76zm82.67-31.33h32.9c2.32 0 4.62-0.46 6.76-1.35 2.15-0.88 4.09-2.18 5.73-3.83 1.65-1.64 2.95-3.58 3.83-5.73 0.89-2.14 1.35-4.44 1.35-6.76 0-2.32-0.45-4.62-1.34-6.77-0.88-2.15-2.18-4.1-3.82-5.74-1.65-1.65-3.6-2.95-5.74-3.84-2.15-0.89-4.45-1.35-6.77-1.35h-32.9c-2.32 0-4.62 0.46-6.77 1.35-2.14 0.89-4.09 2.19-5.74 3.84-1.64 1.64-2.94 3.59-3.82 5.74-0.89 2.15-1.34 4.45-1.34 6.77 0 2.32 0.46 4.62 1.35 6.76 0.88 2.15 2.18 4.09 3.83 5.73 1.64 1.65 3.58 2.95 5.73 3.83 2.14 0.89 4.44 1.35 6.76 1.35zm-113 98h63.9c2.32 0 4.62-0.46 6.76-1.35 2.15-0.88 4.09-2.18 5.73-3.83 1.65-1.64 2.95-3.58 3.83-5.73 0.89-2.14 1.35-4.44 1.35-6.76 0-2.32-0.45-4.62-1.34-6.77-0.88-2.15-2.18-4.1-3.82-5.74-1.65-1.65-3.6-2.95-5.74-3.84-2.15-0.89-4.45-1.35-6.77-1.35h-63.9c-2.32 0-4.62 0.46-6.77 1.35-2.14 0.89-4.09 2.19-5.74 3.84-1.64 1.64-2.94 3.59-3.82 5.74-0.89 2.15-1.34 4.45-1.34 6.77 0 2.32 0.46 4.62 1.35 6.76 0.88 2.15 2.18 4.09 3.83 5.73 1.64 1.65 3.58 2.95 5.73 3.83 2.14 0.89 4.44 1.35 6.76 1.35zm83.92-49h6.25l14.6-35.37h-8.35l-8.9 23.2h-0.1l-8.75-23.2h-8.9zm32.45 0h7.8v-35.37h-7.8zm22.2 0h24.95v-7.17h-17.15v-7.2h15.35v-7.2h-15.35v-6.6h16.25v-7.2h-24zm-149.2-48.97h7.8v-28.5h10.1v-6.9h-28v6.9h10.1zm28.9 0h7.8v-15.3h15.1v15.3h7.8v-35.4h-7.8v13.2h-15.15v-13.2h-7.75zm41.25 0h25v-7.2h-17.25v-7.2h15.35v-7.2h-15.35v-6.6h16.25v-7.2h-24zm-79 49h7.75v-27.15h0.1l9 27.15h5.9l9.3-27.15h0.1v27.15h7.8v-35.4h-11.75l-8.2 23.1h-0.1l-8.15-23.1h-11.8zm112.09 49h12.66q0.96 0 1.92-0.06 0.96-0.07 1.9-0.22 0.95-0.14 1.89-0.36 0.93-0.22 1.85-0.51 0.86-0.27 1.7-0.62 0.83-0.35 1.63-0.77 0.8-0.42 1.56-0.92 0.75-0.5 1.46-1.06 0.69-0.56 1.31-1.19 0.62-0.63 1.17-1.32 0.55-0.7 1.03-1.45 0.47-0.74 0.86-1.54 0.43-0.88 0.76-1.81 0.32-0.92 0.54-1.88 0.22-0.96 0.32-1.93 0.11-0.98 0.1-1.96 0.03-1.06-0.06-2.12-0.09-1.06-0.3-2.1-0.22-1.04-0.55-2.05-0.33-1.01-0.77-1.98-0.39-0.81-0.87-1.58-0.49-0.76-1.06-1.46-0.57-0.69-1.22-1.32-0.65-0.63-1.37-1.17-0.76-0.54-1.56-1-0.81-0.47-1.65-0.85-0.85-0.38-1.73-0.67-0.88-0.3-1.79-0.5-0.99-0.25-1.99-0.43-1-0.19-2.01-0.32-1.02-0.12-2.03-0.18-1.02-0.07-2.04-0.07h-11.71zm7.81-28.2h4.6q0.59 0 1.18 0.04 0.59 0.03 1.18 0.11 0.58 0.08 1.16 0.2 0.58 0.11 1.15 0.27 0.52 0.14 1.03 0.33 0.51 0.19 1 0.43 0.49 0.24 0.95 0.52 0.46 0.28 0.9 0.6 0.41 0.32 0.79 0.68 0.37 0.36 0.7 0.76 0.34 0.4 0.62 0.84 0.28 0.43 0.51 0.9 0.26 0.53 0.45 1.08 0.19 0.55 0.32 1.12 0.13 0.57 0.18 1.15 0.06 0.59 0.05 1.17 0.02 0.65-0.04 1.3-0.05 0.65-0.18 1.29-0.13 0.65-0.32 1.27-0.2 0.62-0.46 1.22-0.22 0.49-0.51 0.95-0.28 0.46-0.62 0.89-0.33 0.42-0.72 0.8-0.39 0.37-0.82 0.7-0.45 0.33-0.92 0.61-0.48 0.28-0.99 0.51-0.5 0.23-1.03 0.41-0.52 0.18-1.06 0.3-0.61 0.14-1.24 0.25-0.62 0.1-1.24 0.17-0.63 0.07-1.26 0.1-0.63 0.03-1.26 0.03h-4.15zm36.14 28.2h14.5q0.6 0 1.19-0.03 0.6-0.04 1.19-0.1 0.59-0.06 1.18-0.15 0.59-0.1 1.17-0.22 0.56-0.11 1.12-0.27 0.55-0.16 1.09-0.37 0.53-0.21 1.05-0.46 0.52-0.25 1.01-0.55 0.47-0.28 0.9-0.61 0.43-0.33 0.82-0.71 0.4-0.38 0.74-0.8 0.35-0.42 0.64-0.88 0.31-0.53 0.55-1.09 0.24-0.57 0.39-1.16 0.15-0.6 0.22-1.21 0.06-0.61 0.04-1.22 0-0.41-0.03-0.82-0.03-0.4-0.1-0.8-0.07-0.41-0.18-0.8-0.1-0.4-0.24-0.78-0.13-0.36-0.29-0.71-0.17-0.35-0.37-0.68-0.19-0.33-0.42-0.64-0.23-0.31-0.49-0.59-0.26-0.29-0.55-0.55-0.28-0.26-0.59-0.49-0.31-0.23-0.64-0.43-0.32-0.21-0.67-0.38-0.37-0.19-0.76-0.35-0.39-0.16-0.79-0.28-0.4-0.13-0.81-0.22-0.41-0.09-0.82-0.15v-0.1q0.64-0.18 1.25-0.46 0.61-0.27 1.17-0.63 0.56-0.36 1.07-0.79 0.5-0.44 0.94-0.94 0.43-0.52 0.75-1.11 0.33-0.6 0.54-1.24 0.22-0.64 0.31-1.31 0.1-0.67 0.07-1.34 0.03-0.61-0.03-1.21-0.06-0.61-0.2-1.2-0.15-0.59-0.38-1.15-0.23-0.57-0.54-1.09-0.28-0.43-0.61-0.82-0.33-0.4-0.71-0.74-0.38-0.35-0.8-0.64-0.42-0.29-0.88-0.53-0.49-0.25-1-0.46-0.51-0.2-1.03-0.37-0.52-0.16-1.06-0.28-0.54-0.12-1.08-0.19-0.58-0.08-1.15-0.14-0.58-0.06-1.16-0.1-0.58-0.04-1.16-0.06-0.58-0.02-1.16-0.02h-13.2zm7.8-28.8h5.3q0.23 0 0.46 0.01 0.24 0.01 0.47 0.04 0.23 0.02 0.46 0.05 0.23 0.03 0.46 0.07 0.22 0.04 0.44 0.09 0.22 0.06 0.43 0.13 0.22 0.08 0.42 0.17 0.21 0.08 0.41 0.19 0.19 0.1 0.36 0.22 0.17 0.12 0.33 0.27 0.15 0.14 0.29 0.3 0.14 0.16 0.25 0.34 0.12 0.2 0.22 0.42 0.09 0.22 0.15 0.45 0.06 0.24 0.09 0.47 0.02 0.24 0.01 0.48 0.01 0.23-0.02 0.47-0.02 0.23-0.07 0.46-0.06 0.22-0.14 0.44-0.08 0.22-0.19 0.43-0.1 0.18-0.22 0.35-0.13 0.17-0.27 0.32-0.14 0.15-0.3 0.29-0.16 0.13-0.34 0.24-0.18 0.12-0.37 0.21-0.19 0.1-0.39 0.19-0.19 0.08-0.4 0.14-0.2 0.06-0.41 0.11-0.22 0.05-0.44 0.09-0.22 0.03-0.44 0.06-0.23 0.02-0.45 0.04-0.23 0.01-0.45 0.01h-5.74zm0 14.15h5.9q0.26 0 0.51 0.01 0.26 0.01 0.52 0.03 0.25 0.02 0.51 0.05 0.26 0.02 0.51 0.06 0.26 0.04 0.51 0.09 0.26 0.05 0.51 0.12 0.25 0.07 0.49 0.15 0.25 0.09 0.49 0.19 0.23 0.09 0.45 0.22 0.21 0.12 0.41 0.27 0.2 0.14 0.38 0.32 0.18 0.17 0.34 0.36 0.16 0.21 0.28 0.45 0.12 0.24 0.2 0.5 0.08 0.25 0.12 0.52 0.03 0.26 0.02 0.53 0.01 0.25-0.02 0.51-0.02 0.25-0.08 0.5-0.06 0.24-0.15 0.48-0.1 0.24-0.22 0.46-0.11 0.19-0.25 0.38-0.14 0.18-0.29 0.34-0.16 0.16-0.33 0.31-0.17 0.14-0.36 0.27-0.19 0.13-0.39 0.23-0.2 0.11-0.41 0.2-0.21 0.09-0.43 0.16-0.22 0.06-0.44 0.11-0.23 0.05-0.45 0.09-0.23 0.03-0.46 0.06-0.23 0.02-0.46 0.04-0.23 0.01-0.46 0.01h-7z"/>
</svg>